<svg width="14" height="12" viewBox="0 0 14 12" fill="none" xmlns="http://www.w3.org/2000/svg">
<path d="M6.25 1.125C6.09375 0.96875 5.84375 0.96875 5.71875 1.125L5.09375 1.75C4.9375 1.875 4.9375 2.125 5.09375 2.28125L8.125 5.21875H0.375C0.15625 5.21875 0 5.375 0 5.59375V6.46875C0 6.65625 0.15625 6.84375 0.375 6.84375H8.125L5.09375 9.75C4.9375 9.90625 4.9375 10.1562 5.09375 10.2812L5.71875 10.9062C5.84375 11.0625 6.09375 11.0625 6.25 10.9062L10.875 6.28125C11.0312 6.125 11.0312 5.90625 10.875 5.75L6.25 1.125ZM12.375 0.375V11.625C12.375 11.8438 12.5312 12 12.75 12H13.625C13.8125 12 14 11.8438 14 11.625V0.375C14 0.1875 13.8125 0 13.625 0H12.75C12.5312 0 12.375 0.1875 12.375 0.375Z" fill="#FFFFFF"/>
</svg>
