<svg width="16" height="16" viewBox="0 0 16 16" fill="none" xmlns="http://www.w3.org/2000/svg">
<path d="M15.75 8C15.75 3.71875 12.2812 0.25 8 0.25C3.71875 0.25 0.25 3.71875 0.25 8C0.25 12.2812 3.71875 15.75 8 15.75C12.2812 15.75 15.75 12.2812 15.75 8ZM1.75 8C1.75 4.5625 4.53125 1.75 8 1.75C11.4375 1.75 14.25 4.5625 14.25 8C14.25 11.4688 11.4375 14.25 8 14.25C4.53125 14.25 1.75 11.4688 1.75 8ZM5.09375 7.75C4.9375 7.90625 4.9375 8.125 5.09375 8.28125L8.9375 12.125C9.09375 12.25 9.3125 12.25 9.46875 12.125L10.1562 11.4062C10.3125 11.25 10.3125 11.0312 10.1562 10.875L7.3125 8L10.1562 5.15625C10.3125 5 10.3125 4.75 10.1562 4.625L9.46875 3.90625C9.3125 3.75 9.09375 3.75 8.9375 3.90625L5.09375 7.75Z" fill="#34AE73"/>
</svg>
