<svg width="30" height="22" viewBox="0 0 30 22" fill="none" xmlns="http://www.w3.org/2000/svg">
<path d="M29.6875 10.3072L26.6667 8.00604V3.40377C26.6667 3.212 26.4583 3.02024 26.25 3.02024H24.5833C24.323 3.06818 24.1667 3.212 24.1667 3.40377V6.13637L16.823 0.575284C16.3542 0.191761 15.6771 0 15 0C14.2708 0 13.5938 0.191761 13.125 0.575284L0.260417 10.3072C0.104167 10.451 0 10.6428 0 10.8825C0 11.0742 0.0520833 11.266 0.15625 11.3619L0.729167 11.9851C0.833333 12.1289 1.09375 12.2248 1.35417 12.2248C1.5625 12.2248 1.71875 12.1769 1.875 12.081L3.33333 10.9783V19.8953C3.33333 20.7582 4.0625 21.4293 5 21.4293H11.6667C12.5521 21.4293 13.2813 20.7582 13.3333 19.8953V14.9095H16.6667V19.8953C16.6667 20.7582 17.3958 21.4293 18.3333 21.4293H25C25.8853 21.4293 26.6147 20.7582 26.6667 19.9431V10.9783L28.073 12.081C28.2292 12.1769 28.3853 12.2727 28.5937 12.2727C28.8542 12.2727 29.1147 12.1289 29.2708 11.9851L29.7917 11.3619C29.8958 11.266 30 11.0742 30 10.8825C30 10.6428 29.8437 10.451 29.6875 10.3072ZM24.1147 19.1282H19.1667V14.1424C19.1593 14.0272 19.1384 13.9149 19.1055 13.8068C18.9054 13.1502 18.2602 12.6495 17.5 12.6083H12.5C11.5625 12.6563 10.8333 13.3274 10.8333 14.1424C10.8333 14.9574 10.8333 19.1282 10.8333 19.1282H5.83333V9.10867L15 2.15732L24.1667 9.10867L24.1147 19.1282Z" fill="#E1E2E0"/>
<path d="M19.1667 19.1282H24.1147L24.1667 9.10867L15 2.15732L5.83333 9.10867V19.1282H10.8333V14.1424C10.8333 13.3274 11.5625 12.6563 12.5 12.6083H17.5C18.2602 12.6495 18.9054 13.1502 19.1055 13.8068C19.1384 13.9149 19.1593 14.0272 19.1667 14.1424V19.1282Z" fill="#E1E2E0"/>
</svg>
