<svg width="27" height="24" viewBox="0 0 27 24" fill="none" xmlns="http://www.w3.org/2000/svg">
<path fill-rule="evenodd" clip-rule="evenodd" d="M22.7812 21.0937H4.21875V7.59374H22.7812V21.0937ZM16.2422 12.6562H10.7578C10.3887 12.6562 10.125 12.3926 10.125 12.0234V10.7578C10.125 10.4414 10.3887 10.125 10.7578 10.125H16.2422C16.5586 10.125 16.875 10.4414 16.875 10.7578V12.0234C16.875 12.3926 16.5586 12.6562 16.2422 12.6562Z" fill="#E1E2E0"/>
<path fill-rule="evenodd" clip-rule="evenodd" d="M2.53125 0H24.4688C25.8398 0 27 1.16016 27 2.53125V6.75C27 7.2246 26.5781 7.59374 26.1562 7.59374H25.3125V21.9375C25.3125 22.8867 24.5214 23.625 23.625 23.625H3.375C2.42578 23.625 1.6875 22.8867 1.6875 21.9375V7.59374H0.84375C0.369141 7.59374 0 7.2246 0 6.75V2.53125C0 1.16016 1.10742 0 2.53125 0ZM4.21875 21.0937H22.7812V7.59374H4.21875V21.0937ZM2.53125 5.0625H24.4688V2.53125H2.53125V5.0625Z" fill="#E1E2E0"/>
</svg>
