<svg width="18" height="18" viewBox="0 0 18 18" fill="none" xmlns="http://www.w3.org/2000/svg">
<path d="M9 6.9375C7.8516 6.9375 6.9375 7.875 6.9375 9C6.9375 10.1484 7.8516 11.0625 9 11.0625C10.125 11.0625 11.0625 10.1484 11.0625 9C11.0625 7.875 10.125 6.9375 9 6.9375ZM9 9.9375C8.4609 9.9375 8.0625 9.5391 8.0625 9C8.0625 8.48438 8.4609 8.0625 9 8.0625C9.51562 8.0625 9.9375 8.48438 9.9375 9C9.9375 9.5391 9.51562 9.9375 9 9.9375ZM14.625 8.4375H13.4531C13.1953 6.42188 11.5781 4.80469 9.5625 4.54688V3.375C9.5625 3.1875 9.375 3 9.1875 3H8.8125C8.6016 3 8.4375 3.1875 8.4375 3.375V4.54688C6.39844 4.80469 4.78125 6.42188 4.52344 8.4375H3.375C3.16406 8.4375 3 8.625 3 8.8125V9.1875C3 9.3984 3.16406 9.5625 3.375 9.5625H4.52344C4.78125 11.6016 6.39844 13.2188 8.4375 13.4766V14.625C8.4375 14.8359 8.6016 15 8.8125 15H9.1875C9.375 15 9.5625 14.8359 9.5625 14.625V13.4766C11.5781 13.2188 13.1953 11.6016 13.4531 9.5625H14.625C14.8125 9.5625 15 9.3984 15 9.1875V8.8125C15 8.625 14.8125 8.4375 14.625 8.4375ZM9 12.375C7.125 12.375 5.625 10.875 5.625 9C5.625 7.14844 7.125 5.625 9 5.625C10.8516 5.625 12.375 7.14844 12.375 9C12.375 10.875 10.8516 12.375 9 12.375Z" fill="#34AE73"/>
</svg>
