<svg
  width="25"
  height="29"
  viewBox="0 0 25 29"
  fill="none"
  xmlns="http://www.w3.org/2000/svg"
>
<path
    d="M24.4981 20.2482C23.4382 19.0767 21.3744 17.3476 21.3744 11.6022C21.3744 7.30718 18.3621 3.84882 14.2345 2.95634V1.78496C14.2345 0.8367 13.4535 0 12.5053 0C11.5012 0 10.7203 0.8367 10.7203 1.78496V2.95634C6.59261 3.84882 3.58049 7.30718 3.58049 11.6022C3.58049 17.3476 1.51663 19.0767 0.45681 20.2482C0.12213 20.5827 -0.0452096 21.029 0.0105703 21.4195C0.0105703 22.3677 0.67993 23.2045 1.79553 23.2045H23.1593C24.2749 23.2045 24.9443 22.3677 25 21.4195C25 21.029 24.8326 20.5827 24.4981 20.2482ZM3.74783 20.527C4.91921 19.0209 6.20215 16.3993 6.25793 11.658C6.25793 11.658 6.25793 11.658 6.25793 11.6022C6.25793 8.19966 9.04693 5.35488 12.5053 5.35488C15.9079 5.35488 18.7526 8.19966 18.7526 11.6022C18.7526 11.658 18.697 11.658 18.697 11.658C18.7526 16.3993 20.0357 19.0209 21.207 20.527H3.74783ZM12.5053 28.5593C14.4576 28.5593 16.0194 26.9975 16.0194 24.9894H8.93537C8.93537 26.9975 10.4972 28.5593 12.5053 28.5593Z"
    fill="#34AE73"
    fill-opacity="0.7"
  />
<path
    d="M3.74783 20.527C4.91921 19.0209 6.20215 16.3993 6.25793 11.658V11.6022C6.25793 8.19966 9.04693 5.35488 12.5053 5.35488C15.9079 5.35488 18.7526 8.19966 18.7526 11.6022C18.7526 11.658 18.697 11.658 18.697 11.658C18.7526 16.3993 20.0357 19.0209 21.207 20.527H3.74783Z"
    fill="#34AE73"
    fill-opacity="0.7"
  />
</svg>
