<svg width="13" height="12" viewBox="0 0 13 12" fill="none" xmlns="http://www.w3.org/2000/svg">
<path d="M11.5047 5H7.00382V0.5C7.00382 0.25 6.75377 0 6.50372 0H5.50352C5.22227 0 5.00342 0.25 5.00342 0.5V5H0.50254C0.221234 5 0.00244141 5.25 0.00244141 5.5V6.5C0.00244141 6.7812 0.221234 7 0.50254 7H5.00342V11.5C5.00342 11.7812 5.22227 12 5.50352 12H6.50372C6.75377 12 7.00382 11.7812 7.00382 11.5V7H11.5047C11.7548 7 12.0048 6.7812 12.0048 6.5V5.5C12.0048 5.25 11.7548 5 11.5047 5Z" fill="#34AE73"/>
</svg>
