<svg width="15" height="12" viewBox="0 0 15 12" fill="none" xmlns="http://www.w3.org/2000/svg">
<g clip-path="url(#clip0)">
<path d="M14.2217 6C14.1955 2.78906 11.275 0.1875 7.69673 0.1875C5.8813 0.1875 4.22374 0.867188 3.03977 1.92188L1.8558 0.867188C1.67163 0.703125 1.32959 0.820312 1.32959 1.07812V4.03125C1.32959 4.19531 1.46114 4.3125 1.64532 4.3125H5.01306C5.30247 4.3125 5.43403 4.00781 5.24985 3.84375L3.96064 2.71875C4.90782 1.85156 6.22334 1.3125 7.69673 1.3125C10.5909 1.3125 12.9588 3.42188 12.9588 6C12.9588 8.6016 10.5909 10.6875 7.69673 10.6875C6.32858 10.6875 5.1183 10.2422 4.17112 9.51562C4.06588 9.42188 3.8554 9.42188 3.75015 9.51562L3.30288 9.9141C3.17132 10.0312 3.17132 10.2188 3.30288 10.3359C4.46054 11.25 6.01286 11.8359 7.69673 11.8125C11.275 11.8125 14.2217 9.2109 14.2217 6ZM9.80157 8.10938L10.1963 7.6641C10.2752 7.5234 10.2488 7.35938 10.1173 7.26562L8.32818 6.09375V2.71875C8.32818 2.57812 8.17032 2.4375 8.01245 2.4375H7.381C7.19683 2.4375 7.06528 2.57812 7.06528 2.71875V6.67969L9.3806 8.17965C9.51211 8.2734 9.72259 8.25 9.80157 8.10938Z" fill="#323232"/>
</g>
<defs>
<clipPath id="clip0">
<rect width="13.471" height="12" fill="white" transform="translate(0.961304)"/>
</clipPath>
</defs>
</svg>
