<svg width="100" height="42" viewBox="0 0 100 42" fill="none" xmlns="http://www.w3.org/2000/svg">
<rect x="0.5" y="0.5" width="99" height="41" rx="4.5" fill="#34AE73" fill-opacity="0.8" stroke="#34AE73"/>
<path d="M38.5104 16.17C38.4371 16.3167 38.3504 16.42 38.2504 16.48C38.1571 16.54 38.0438 16.57 37.9104 16.57C37.7771 16.57 37.6271 16.52 37.4604 16.42C37.2938 16.3133 37.0971 16.1967 36.8704 16.07C36.6438 15.9433 36.3771 15.83 36.0704 15.73C35.7704 15.6233 35.4138 15.57 35.0004 15.57C34.6271 15.57 34.3004 15.6167 34.0204 15.71C33.7471 15.7967 33.5138 15.92 33.3204 16.08C33.1338 16.24 32.9938 16.4333 32.9004 16.66C32.8071 16.88 32.7604 17.1233 32.7604 17.39C32.7604 17.73 32.8538 18.0133 33.0404 18.24C33.2338 18.4667 33.4871 18.66 33.8004 18.82C34.1138 18.98 34.4704 19.1233 34.8704 19.25C35.2704 19.3767 35.6771 19.5133 36.0904 19.66C36.5104 19.8 36.9204 19.9667 37.3204 20.16C37.7204 20.3467 38.0771 20.5867 38.3904 20.88C38.7038 21.1667 38.9538 21.52 39.1404 21.94C39.3338 22.36 39.4304 22.87 39.4304 23.47C39.4304 24.1233 39.3171 24.7367 39.0904 25.31C38.8704 25.8767 38.5438 26.3733 38.1104 26.8C37.6838 27.22 37.1604 27.5533 36.5404 27.8C35.9204 28.04 35.2104 28.16 34.4104 28.16C33.9504 28.16 33.4971 28.1133 33.0504 28.02C32.6038 27.9333 32.1738 27.8067 31.7604 27.64C31.3538 27.4733 30.9704 27.2733 30.6104 27.04C30.2571 26.8067 29.9404 26.5467 29.6604 26.26L30.4404 24.97C30.5138 24.8767 30.6004 24.8 30.7004 24.74C30.8071 24.6733 30.9238 24.64 31.0504 24.64C31.2171 24.64 31.3971 24.71 31.5904 24.85C31.7838 24.9833 32.0104 25.1333 32.2704 25.3C32.5371 25.4667 32.8471 25.62 33.2004 25.76C33.5604 25.8933 33.9904 25.96 34.4904 25.96C35.2571 25.96 35.8504 25.78 36.2704 25.42C36.6904 25.0533 36.9004 24.53 36.9004 23.85C36.9004 23.47 36.8038 23.16 36.6104 22.92C36.4238 22.68 36.1738 22.48 35.8604 22.32C35.5471 22.1533 35.1904 22.0133 34.7904 21.9C34.3904 21.7867 33.9838 21.6633 33.5704 21.53C33.1571 21.3967 32.7504 21.2367 32.3504 21.05C31.9504 20.8633 31.5938 20.62 31.2804 20.32C30.9671 20.02 30.7138 19.6467 30.5204 19.2C30.3338 18.7467 30.2404 18.19 30.2404 17.53C30.2404 17.0033 30.3438 16.49 30.5504 15.99C30.7638 15.49 31.0704 15.0467 31.4704 14.66C31.8771 14.2733 32.3738 13.9633 32.9604 13.73C33.5471 13.4967 34.2171 13.38 34.9704 13.38C35.8238 13.38 36.6104 13.5133 37.3304 13.78C38.0504 14.0467 38.6638 14.42 39.1704 14.9L38.5104 16.17ZM44.7131 28.16C43.8264 28.16 43.1431 27.91 42.6631 27.41C42.1831 26.9033 41.9431 26.2067 41.9431 25.32V19.59H40.9031C40.7697 19.59 40.6531 19.5467 40.5531 19.46C40.4597 19.3733 40.4131 19.2433 40.4131 19.07V18.09L42.0631 17.82L42.5831 15.02C42.6097 14.8867 42.6697 14.7833 42.7631 14.71C42.8631 14.6367 42.9864 14.6 43.1331 14.6H44.4131V17.83H47.1131V19.59H44.4131V25.15C44.4131 25.47 44.4931 25.72 44.6531 25.9C44.8131 26.08 45.0264 26.17 45.2931 26.17C45.4464 26.17 45.5731 26.1533 45.6731 26.12C45.7797 26.08 45.8697 26.04 45.9431 26C46.0231 25.96 46.0931 25.9233 46.1531 25.89C46.2131 25.85 46.2731 25.83 46.3331 25.83C46.4064 25.83 46.4664 25.85 46.5131 25.89C46.5597 25.9233 46.6097 25.9767 46.6631 26.05L47.4031 27.25C47.0431 27.55 46.6297 27.7767 46.1631 27.93C45.6964 28.0833 45.2131 28.16 44.7131 28.16ZM57.1175 28H56.0075C55.7741 28 55.5908 27.9667 55.4575 27.9C55.3241 27.8267 55.2241 27.6833 55.1575 27.47L54.9375 26.74C54.6775 26.9733 54.4208 27.18 54.1675 27.36C53.9208 27.5333 53.6641 27.68 53.3975 27.8C53.1308 27.92 52.8475 28.01 52.5475 28.07C52.2475 28.13 51.9141 28.16 51.5475 28.16C51.1141 28.16 50.7141 28.1033 50.3475 27.99C49.9808 27.87 49.6641 27.6933 49.3975 27.46C49.1375 27.2267 48.9341 26.9367 48.7875 26.59C48.6408 26.2433 48.5675 25.84 48.5675 25.38C48.5675 24.9933 48.6675 24.6133 48.8675 24.24C49.0741 23.86 49.4141 23.52 49.8875 23.22C50.3608 22.9133 50.9908 22.66 51.7775 22.46C52.5641 22.26 53.5408 22.1467 54.7075 22.12V21.52C54.7075 20.8333 54.5608 20.3267 54.2675 20C53.9808 19.6667 53.5608 19.5 53.0075 19.5C52.6075 19.5 52.2741 19.5467 52.0075 19.64C51.7408 19.7333 51.5075 19.84 51.3075 19.96C51.1141 20.0733 50.9341 20.1767 50.7675 20.27C50.6008 20.3633 50.4175 20.41 50.2175 20.41C50.0508 20.41 49.9075 20.3667 49.7875 20.28C49.6675 20.1933 49.5708 20.0867 49.4975 19.96L49.0475 19.17C50.2275 18.09 51.6508 17.55 53.3175 17.55C53.9175 17.55 54.4508 17.65 54.9175 17.85C55.3908 18.0433 55.7908 18.3167 56.1175 18.67C56.4441 19.0167 56.6908 19.4333 56.8575 19.92C57.0308 20.4067 57.1175 20.94 57.1175 21.52V28ZM52.3175 26.46C52.5708 26.46 52.8041 26.4367 53.0175 26.39C53.2308 26.3433 53.4308 26.2733 53.6175 26.18C53.8108 26.0867 53.9941 25.9733 54.1675 25.84C54.3475 25.7 54.5275 25.5367 54.7075 25.35V23.62C53.9875 23.6533 53.3841 23.7167 52.8975 23.81C52.4175 23.8967 52.0308 24.01 51.7375 24.15C51.4441 24.29 51.2341 24.4533 51.1075 24.64C50.9875 24.8267 50.9275 25.03 50.9275 25.25C50.9275 25.6833 51.0541 25.9933 51.3075 26.18C51.5675 26.3667 51.9041 26.46 52.3175 26.46ZM59.5462 28V17.74H60.9962C61.2495 17.74 61.4262 17.7867 61.5262 17.88C61.6262 17.9733 61.6929 18.1333 61.7262 18.36L61.8762 19.6C62.2429 18.9667 62.6729 18.4667 63.1662 18.1C63.6595 17.7333 64.2129 17.55 64.8262 17.55C65.3329 17.55 65.7529 17.6667 66.0862 17.9L65.7662 19.75C65.7462 19.87 65.7029 19.9567 65.6362 20.01C65.5695 20.0567 65.4795 20.08 65.3662 20.08C65.2662 20.08 65.1295 20.0567 64.9562 20.01C64.7829 19.9633 64.5529 19.94 64.2662 19.94C63.7529 19.94 63.3129 20.0833 62.9462 20.37C62.5795 20.65 62.2695 21.0633 62.0162 21.61V28H59.5462ZM71.0803 28.16C70.1936 28.16 69.5103 27.91 69.0303 27.41C68.5503 26.9033 68.3103 26.2067 68.3103 25.32V19.59H67.2703C67.1369 19.59 67.0203 19.5467 66.9203 19.46C66.8269 19.3733 66.7803 19.2433 66.7803 19.07V18.09L68.4303 17.82L68.9503 15.02C68.9769 14.8867 69.0369 14.7833 69.1303 14.71C69.2303 14.6367 69.3536 14.6 69.5003 14.6H70.7803V17.83H73.4803V19.59H70.7803V25.15C70.7803 25.47 70.8603 25.72 71.0203 25.9C71.1803 26.08 71.3936 26.17 71.6603 26.17C71.8136 26.17 71.9403 26.1533 72.0403 26.12C72.1469 26.08 72.2369 26.04 72.3103 26C72.3903 25.96 72.4603 25.9233 72.5203 25.89C72.5803 25.85 72.6403 25.83 72.7003 25.83C72.7736 25.83 72.8336 25.85 72.8803 25.89C72.9269 25.9233 72.9769 25.9767 73.0303 26.05L73.7703 27.25C73.4103 27.55 72.9969 27.7767 72.5303 27.93C72.0636 28.0833 71.5803 28.16 71.0803 28.16Z" fill="white"/>
</svg>
