<svg width="16" height="16" viewBox="0 0 16 16" fill="none" xmlns="http://www.w3.org/2000/svg">
<path d="M5.25 10.5938V12C5.25 12.9688 6.03125 13.75 7 13.75H9C9.9375 13.75 10.75 12.9688 10.75 12V10.5938C11.3125 10.3125 11.75 9.71875 11.75 9V6.75C11.75 5.875 11.1875 5.09375 10.4375 4.71875C10.7812 4.25 11 3.65625 11 3C11 1.375 9.625 0 8 0C6.34375 0 5 1.375 5 3C5 3.65625 5.1875 4.25 5.53125 4.71875C4.78125 5.09375 4.25 5.875 4.25 6.75V9C4.25 9.71875 4.65625 10.3125 5.25 10.5938ZM8 1.5C8.8125 1.5 9.5 2.1875 9.5 3C9.5 3.84375 8.8125 4.5 8 4.5C7.15625 4.5 6.5 3.84375 6.5 3C6.5 2.1875 7.15625 1.5 8 1.5ZM5.75 6.75C5.75 6.34375 6.0625 6 6.5 6H9.5C9.90625 6 10.25 6.34375 10.25 6.75V9C10.25 9.15625 10.125 9.25 10 9.25H9.25V12C9.25 12.1562 9.125 12.25 9 12.25H7C6.84375 12.25 6.75 12.1562 6.75 12V9.25H6C5.84375 9.25 5.75 9.15625 5.75 9V6.75ZM12.2812 10.5C12.125 10.7188 11.9688 10.9375 11.75 11.125V11.5938C13.4062 11.9062 14.5 12.4375 14.5 13.0312C14.5 13.9688 11.5625 14.7812 8 14.7812C4.40625 14.7812 1.5 13.9688 1.5 13C1.5 12.4375 2.5625 11.9062 4.25 11.5938V11.125C4 10.9375 3.84375 10.7188 3.6875 10.5C1.46875 11.0312 0 11.9375 0 13C0 14.6875 3.5625 16 8 16C12.4062 16 16 14.6875 16 13C16 11.9375 14.5 11.0312 12.2812 10.5Z" fill="#323232"/>
</svg>
