<svg width="24" height="28" viewBox="0 0 24 28" fill="none" xmlns="http://www.w3.org/2000/svg">
<path fill-rule="evenodd" clip-rule="evenodd" d="M21.4286 24.5357C21.4286 24.75 21.2678 24.8571 21.1071 24.8571H2.89286C2.67857 24.8571 2.57143 24.75 2.57143 24.5357V8.57143H21.4286V24.5357ZM8.57143 14.7857C8.57143 15.1607 8.25 15.4286 7.92857 15.4286H5.78571C5.41071 15.4286 5.14286 15.1607 5.14286 14.7857V12.6429C5.14286 12.3214 5.41071 12 5.78571 12H7.92857C8.25 12 8.57143 12.3214 8.57143 12.6429V14.7857ZM13.7143 12.6429V14.7857C13.7143 15.1607 13.3929 15.4286 13.0714 15.4286H10.9286C10.5536 15.4286 10.2857 15.1607 10.2857 14.7857V12.6429C10.2857 12.3214 10.5536 12 10.9286 12H13.0714C13.3929 12 13.7143 12.3214 13.7143 12.6429ZM18.8571 12.6429V14.7857C18.8571 15.1607 18.5357 15.4286 18.2143 15.4286H16.0714C15.6964 15.4286 15.4286 15.1607 15.4286 14.7857V12.6429C15.4286 12.3214 15.6964 12 16.0714 12H18.2143C18.5357 12 18.8571 12.3214 18.8571 12.6429ZM13.7143 17.7857V19.9286C13.7143 20.3037 13.3929 20.5714 13.0714 20.5714H10.9286C10.5536 20.5714 10.2857 20.3037 10.2857 19.9286V17.7857C10.2857 17.4643 10.5536 17.1429 10.9286 17.1429H13.0714C13.3929 17.1429 13.7143 17.4643 13.7143 17.7857ZM8.57143 17.7857V19.9286C8.57143 20.3037 8.25 20.5714 7.92857 20.5714H5.78571C5.41071 20.5714 5.14286 20.3037 5.14286 19.9286V17.7857C5.14286 17.4643 5.41071 17.1429 5.78571 17.1429H7.92857C8.25 17.1429 8.57143 17.4643 8.57143 17.7857ZM18.8571 17.7857V19.9286C18.8571 20.3037 18.5357 20.5714 18.2143 20.5714H16.0714C15.6964 20.5714 15.4286 20.3037 15.4286 19.9286V17.7857C15.4286 17.4643 15.6964 17.1429 16.0714 17.1429H18.2143C18.5357 17.1429 18.8571 17.4643 18.8571 17.7857Z" fill="#E0E1E2"/>
<path fill-rule="evenodd" clip-rule="evenodd" d="M24 6C24 4.60714 22.8214 3.42857 21.4286 3.42857H18.8571V0.642857C18.8571 0.321429 18.5357 0 18.2143 0H16.0714C15.6964 0 15.4286 0.321429 15.4286 0.642857V3.42857H8.57143V0.642857C8.57143 0.321429 8.25 0 7.92857 0H5.78571C5.41071 0 5.14286 0.321429 5.14286 0.642857V3.42857H2.57143C1.125 3.42857 0 4.60714 0 6V24.8571C0 26.3037 1.125 27.4286 2.57143 27.4286H21.4286C22.8214 27.4286 24 26.3037 24 24.8571V6ZM21.4286 24.5357C21.4286 24.75 21.2678 24.8571 21.1071 24.8571H2.89286C2.67857 24.8571 2.57143 24.75 2.57143 24.5357V8.57143H21.4286V24.5357Z" fill="#E0E1E2"/>
</svg>
