<svg width="28" height="23" viewBox="0 0 28 23" fill="none" xmlns="http://www.w3.org/2000/svg">
<path fill-rule="evenodd" clip-rule="evenodd" d="M14.7 20.3H7.7V4.15625L14.7 2.31875V20.3ZM13.65 11.2C13.65 11.9875 13.1687 12.6 12.6 12.6C11.9875 12.6 11.55 11.9875 11.55 11.2C11.55 10.4563 11.9875 9.8 12.6 9.8C13.1687 9.8 13.65 10.4563 13.65 11.2Z" fill="#D67777"/>
<path fill-rule="evenodd" clip-rule="evenodd" d="M22.4 20.3H27.3C27.65 20.3 28 20.65 28 21V21.7C28 22.0937 27.65 22.4 27.3 22.4H0.7C0.30625 22.4 0 22.0937 0 21.7V21C0 20.65 0.30625 20.3 0.7 20.3H5.6V3.63125C5.6 2.975 5.99375 2.40625 6.65 2.23125L15.05 0.0875C15.1375 0.04375 15.2687 0 15.4 0C16.1437 0 16.8 0.65625 16.8 1.4875V2.8H20.3C21.4375 2.8 22.4 3.80625 22.4 4.9875V20.3ZM7.7 20.3H14.7V2.31875L7.7 4.15625V20.3ZM16.8 20.3H20.3V4.9H16.8V20.3Z" fill="#D67777"/>
</svg>
