<svg width="70" height="70" viewBox="0 0 70 70" fill="none" xmlns="http://www.w3.org/2000/svg">
<g filter="url(#filter0_d)">
<path d="M55 11H15V51H55V11Z" fill="black"/>
</g>
<path d="M51 7H17C12.5817 7 9 10.5817 9 15V49C9 53.4183 12.5817 57 17 57H51C55.4183 57 59 53.4183 59 49V15C59 10.5817 55.4183 7 51 7Z" fill="#34AE73"/>
<g filter="url(#filter1_d)">
<path d="M25.8426 22.36H31.8426V43H25.8426V22.36ZM34.3026 35.98H33.1026V31.39H34.1226C34.7426 31.39 35.2126 31.37 35.5326 31.33C35.8526 31.27 36.1026 31.17 36.2826 31.03C36.4426 30.89 36.5526 30.68 36.6126 30.4C36.6726 30.12 36.7026 29.71 36.7026 29.17C36.7026 28.63 36.6726 28.22 36.6126 27.94C36.5526 27.64 36.4426 27.42 36.2826 27.28C36.1226 27.14 35.8826 27.05 35.5626 27.01C35.2626 26.97 34.7826 26.95 34.1226 26.95H33.1026V22.36H36.1926C37.6126 22.36 38.7626 22.5 39.6426 22.78C40.5226 23.06 41.2026 23.49 41.6826 24.07C42.1226 24.61 42.4126 25.28 42.5526 26.08C42.7126 26.88 42.7926 27.91 42.7926 29.17C42.7926 30.79 42.6426 32.04 42.3426 32.92C41.9226 34.04 41.1826 34.83 40.1226 35.29L43.2426 43H36.9426L34.3026 35.98Z" fill="white"/>
</g>
<defs>
<filter id="filter0_d" x="0" y="0" width="70" height="70" filterUnits="userSpaceOnUse" color-interpolation-filters="sRGB">
<feFlood flood-opacity="0" result="BackgroundImageFix"/>
<feColorMatrix in="SourceAlpha" type="matrix" values="0 0 0 0 0 0 0 0 0 0 0 0 0 0 0 0 0 0 127 0" result="hardAlpha"/>
<feOffset dy="4"/>
<feGaussianBlur stdDeviation="7.5"/>
<feColorMatrix type="matrix" values="0 0 0 0 1 0 0 0 0 1 0 0 0 0 1 0 0 0 0.25 0"/>
<feBlend mode="normal" in2="BackgroundImageFix" result="effect1_dropShadow"/>
<feBlend mode="normal" in="SourceGraphic" in2="effect1_dropShadow" result="shape"/>
</filter>
<filter id="filter1_d" x="15.8426" y="16.36" width="37.4" height="40.64" filterUnits="userSpaceOnUse" color-interpolation-filters="sRGB">
<feFlood flood-opacity="0" result="BackgroundImageFix"/>
<feColorMatrix in="SourceAlpha" type="matrix" values="0 0 0 0 0 0 0 0 0 0 0 0 0 0 0 0 0 0 127 0" result="hardAlpha"/>
<feOffset dy="4"/>
<feGaussianBlur stdDeviation="5"/>
<feColorMatrix type="matrix" values="0 0 0 0 1 0 0 0 0 1 0 0 0 0 1 0 0 0 0.25 0"/>
<feBlend mode="normal" in2="BackgroundImageFix" result="effect1_dropShadow"/>
<feBlend mode="normal" in="SourceGraphic" in2="effect1_dropShadow" result="shape"/>
</filter>
</defs>
</svg>
