<svg width="28" height="25" viewBox="0 0 28 25" fill="none" xmlns="http://www.w3.org/2000/svg">
<path d="M14.0162 0C6.25962 0 0.032478 5.21281 0.032478 11.5347C0.032478 14.1966 1.07034 16.6366 2.87293 18.5777C2.10819 20.7403 0.414846 22.6258 0.360222 22.6258C-0.022146 23.0141 -0.0767701 23.5685 0.0871021 24.0677C0.305598 24.5669 0.797215 24.844 1.34346 24.844C4.67552 24.844 7.3521 23.4577 8.9362 22.2931C10.5203 22.7923 12.2136 23.0695 14.0162 23.0695C21.7181 23.0695 28 17.9122 28 11.5347C28 5.21281 21.7181 0 14.0162 0ZM14.0162 20.4076C12.5414 20.4076 11.0665 20.1858 9.70094 19.7421L8.44458 19.3539L7.40673 20.1304C6.64199 20.6848 5.54951 21.2949 4.23853 21.7385C4.67552 21.0731 5.05789 20.2967 5.33101 19.5203L5.93188 17.9676L4.78477 16.7475C3.80154 15.6939 2.65443 13.9193 2.65443 11.5347C2.65443 6.65465 7.73447 2.66186 14.0162 2.66186C20.2434 2.66186 25.378 6.65465 25.378 11.5347C25.378 16.4703 20.2434 20.4076 14.0162 20.4076Z" fill="#DEDFDF"/>
<path d="M14.0162 20.4076C12.5414 20.4076 11.0665 20.1858 9.70094 19.7421L8.44458 19.3539L7.40673 20.1304C6.64199 20.6848 5.54951 21.2949 4.23853 21.7385C4.67552 21.0731 5.05789 20.2967 5.33101 19.5203L5.93188 17.9676L4.78477 16.7475C3.80154 15.6939 2.65443 13.9193 2.65443 11.5347C2.65443 6.65465 7.73447 2.66186 14.0162 2.66186C20.2434 2.66186 25.378 6.65465 25.378 11.5347C25.378 16.4703 20.2434 20.4076 14.0162 20.4076Z" fill="#DEDFDF"/>
</svg>
