<svg width="130" height="55" viewBox="0 0 130 55" fill="none" xmlns="http://www.w3.org/2000/svg">
<rect x="0.5" y="0.5" width="129" height="53.8889" rx="9.5" fill="#34AE73" fill-opacity="0.8" stroke="#34AE73"/>
<path d="M30.8381 19.9844C30.9581 19.9844 31.0581 19.9911 31.1381 20.0044C31.2181 20.0111 31.2881 20.0311 31.3481 20.0644C31.4148 20.0911 31.4781 20.1344 31.5381 20.1944C31.5981 20.2478 31.6648 20.3211 31.7381 20.4144L39.3281 30.0844C39.3015 29.8511 39.2815 29.6244 39.2681 29.4044C39.2615 29.1778 39.2581 28.9678 39.2581 28.7744V19.9844H41.6281V34.4444H40.2381C40.0248 34.4444 39.8481 34.4111 39.7081 34.3444C39.5681 34.2778 39.4315 34.1578 39.2981 33.9844L31.7381 24.3544C31.7581 24.5678 31.7715 24.7811 31.7781 24.9944C31.7915 25.2011 31.7981 25.3911 31.7981 25.5644V34.4444H29.4281V19.9844H30.8381ZM48.6453 24.0244C49.292 24.0244 49.8853 24.1278 50.4253 24.3344C50.972 24.5411 51.442 24.8444 51.8353 25.2444C52.2286 25.6378 52.5353 26.1244 52.7553 26.7044C52.9753 27.2778 53.0853 27.9344 53.0853 28.6744C53.0853 28.8611 53.0753 29.0178 53.0553 29.1444C53.042 29.2644 53.012 29.3611 52.9653 29.4344C52.9253 29.5011 52.8686 29.5511 52.7953 29.5844C52.722 29.6111 52.6286 29.6244 52.5153 29.6244H46.1753C46.2486 30.6778 46.532 31.4511 47.0253 31.9444C47.5186 32.4378 48.172 32.6844 48.9853 32.6844C49.3853 32.6844 49.7286 32.6378 50.0153 32.5444C50.3086 32.4511 50.562 32.3478 50.7753 32.2344C50.9953 32.1211 51.1853 32.0178 51.3453 31.9244C51.512 31.8311 51.672 31.7844 51.8253 31.7844C51.9253 31.7844 52.012 31.8044 52.0853 31.8444C52.1586 31.8844 52.222 31.9411 52.2753 32.0144L52.9953 32.9144C52.722 33.2344 52.4153 33.5044 52.0753 33.7244C51.7353 33.9378 51.3786 34.1111 51.0053 34.2444C50.6386 34.3711 50.262 34.4611 49.8753 34.5144C49.4953 34.5678 49.1253 34.5944 48.7653 34.5944C48.052 34.5944 47.3886 34.4778 46.7753 34.2444C46.162 34.0044 45.6286 33.6544 45.1753 33.1944C44.722 32.7278 44.3653 32.1544 44.1053 31.4744C43.8453 30.7878 43.7153 29.9944 43.7153 29.0944C43.7153 28.3944 43.8286 27.7378 44.0553 27.1244C44.282 26.5044 44.6053 25.9678 45.0253 25.5144C45.452 25.0544 45.9686 24.6911 46.5753 24.4244C47.1886 24.1578 47.8786 24.0244 48.6453 24.0244ZM48.6953 25.7944C47.9753 25.7944 47.412 25.9978 47.0053 26.4044C46.5986 26.8111 46.3386 27.3878 46.2253 28.1344H50.8653C50.8653 27.8144 50.822 27.5144 50.7353 27.2344C50.6486 26.9478 50.5153 26.6978 50.3353 26.4844C50.1553 26.2711 49.9286 26.1044 49.6553 25.9844C49.382 25.8578 49.062 25.7944 48.6953 25.7944ZM56.9134 29.1544L53.5434 24.1844H55.9234C56.1034 24.1844 56.2368 24.2111 56.3234 24.2644C56.4101 24.3111 56.4868 24.3911 56.5534 24.5044L58.7034 27.9344C58.7368 27.8211 58.7768 27.7078 58.8234 27.5944C58.8768 27.4811 58.9401 27.3678 59.0134 27.2544L60.7434 24.5544C60.8234 24.4278 60.9068 24.3344 60.9934 24.2744C61.0801 24.2144 61.1868 24.1844 61.3134 24.1844H63.5834L60.2034 29.0444L63.7234 34.4444H61.3434C61.1634 34.4444 61.0168 34.3978 60.9034 34.3044C60.7968 34.2111 60.7068 34.1044 60.6334 33.9844L58.4534 30.4144C58.3934 30.6544 58.3101 30.8544 58.2034 31.0144L56.2834 33.9844C56.2101 34.0978 56.1201 34.2044 56.0134 34.3044C55.9068 34.3978 55.7734 34.4444 55.6134 34.4444H53.4034L56.9134 29.1544ZM68.6542 34.6044C67.7675 34.6044 67.0842 34.3544 66.6042 33.8544C66.1242 33.3478 65.8842 32.6511 65.8842 31.7644V26.0344H64.8442C64.7109 26.0344 64.5942 25.9911 64.4942 25.9044C64.4009 25.8178 64.3542 25.6878 64.3542 25.5144V24.5344L66.0042 24.2644L66.5242 21.4644C66.5509 21.3311 66.6109 21.2278 66.7042 21.1544C66.8042 21.0811 66.9275 21.0444 67.0742 21.0444H68.3542V24.2744H71.0542V26.0344H68.3542V31.5944C68.3542 31.9144 68.4342 32.1644 68.5942 32.3444C68.7542 32.5244 68.9675 32.6144 69.2342 32.6144C69.3875 32.6144 69.5142 32.5978 69.6142 32.5644C69.7209 32.5244 69.8109 32.4844 69.8842 32.4444C69.9642 32.4044 70.0342 32.3678 70.0942 32.3344C70.1542 32.2944 70.2142 32.2744 70.2742 32.2744C70.3475 32.2744 70.4075 32.2944 70.4542 32.3344C70.5009 32.3678 70.5509 32.4211 70.6042 32.4944L71.3442 33.6944C70.9842 33.9944 70.5709 34.2211 70.1042 34.3744C69.6375 34.5278 69.1542 34.6044 68.6542 34.6044Z" fill="white"/>
<g clip-path="url(#clip0)">
<path d="M90.2679 19.8482C90.0112 19.5915 89.6004 19.5915 89.3951 19.8482L88.3683 20.875C88.1116 21.0804 88.1116 21.4911 88.3683 21.7478L93.3482 26.5737H80.6161C80.2567 26.5737 80 26.8304 80 27.1897V28.6272C80 28.9353 80.2567 29.2433 80.6161 29.2433H93.3482L88.3683 34.0179C88.1116 34.2746 88.1116 34.6852 88.3683 34.8905L89.3951 35.9173C89.6004 36.1741 90.0112 36.1741 90.2679 35.9173L97.8661 28.3192C98.1227 28.0625 98.1227 27.7031 97.8661 27.4464L90.2679 19.8482ZM100.33 18.6161V37.0982C100.33 37.4577 100.587 37.7143 100.946 37.7143H102.384C102.692 37.7143 103 37.4577 103 37.0982V18.6161C103 18.308 102.692 18 102.384 18H100.946C100.587 18 100.33 18.308 100.33 18.6161Z" fill="white"/>
</g>
<defs>
<clipPath id="clip0">
<rect width="23" height="19.7143" fill="white" transform="translate(80 18)"/>
</clipPath>
</defs>
</svg>
