<svg width="18" height="13" viewBox="0 0 18 13" fill="none" xmlns="http://www.w3.org/2000/svg">
<path d="M5.8125 2.9375L5.46875 2.59375C5.375 2.5 5.25 2.4375 5.125 2.4375C4.96875 2.4375 4.8125 2.5 4.71875 2.625C3.9375 3.53125 3.5 4.71875 3.5 6C3.5 7.3125 3.9375 8.5 4.71875 9.40625C4.8125 9.53125 4.96875 9.59375 5.125 9.59375C5.25 9.59375 5.375 9.53125 5.46875 9.4375L5.8125 9.09375C5.90625 9 5.96875 8.90625 5.96875 8.75C5.96875 8.65625 5.9375 8.53125 5.875 8.46875C5.3125 7.78125 5 6.9375 5 6.03125C5 5.09375 5.3125 4.25 5.875 3.5625C5.9375 3.5 5.96875 3.375 5.96875 3.28125C5.96875 3.125 5.90625 3.03125 5.8125 2.9375ZM3.34375 0.5L3 0.15625C2.90625 0.0625 2.78125 0.03125 2.625 0.03125C2.46875 0.03125 2.34375 0.09375 2.25 0.1875C0.78125 1.78125 0 3.84375 0 6C0 8.1875 0.78125 10.2188 2.25 11.8438C2.34375 11.9375 2.46875 12.0312 2.625 12.0312C2.78125 12.0312 2.90625 11.9688 3 11.875L3.34375 11.5312C3.53125 11.3438 3.53125 11.0625 3.34375 10.8438C2.1875 9.5625 1.5 7.875 1.5 6.03125C1.5 4.15625 2.1875 2.46875 3.34375 1.1875C3.53125 0.96875 3.53125 0.6875 3.34375 0.5ZM15.7188 0.1875C15.625 0.09375 15.5 0 15.3438 0C15.1875 0 15.0625 0.0625 15 0.15625L14.625 0.5C14.4375 0.6875 14.4375 0.96875 14.625 1.1875C15.7812 2.46875 16.4688 4.15625 16.4688 6C16.4688 7.875 15.7812 9.5625 14.625 10.8438C14.4375 11.0625 14.4375 11.3438 14.625 11.5312L15 11.875C15.0625 11.9688 15.1875 12 15.3438 12C15.5 12 15.625 11.9375 15.7188 11.8438C17.1875 10.2188 18 8.1875 18 6C18 3.84375 17.1875 1.78125 15.7188 0.1875ZM9 4.25C8.03125 4.25 7.25 5.0625 7.25 6C7.25 6.96875 8.03125 7.75 9 7.75C9.9375 7.75 10.75 6.96875 10.75 6C10.75 5.0625 9.9375 4.25 9 4.25ZM12.5 2.59375L12.1562 2.9375C12.0625 3.03125 12 3.125 12 3.28125C12 3.375 12.0312 3.5 12.0938 3.5625C12.6562 4.25 12.9688 5.09375 12.9688 6C12.9688 6.9375 12.6562 7.78125 12.0938 8.46875C12.0312 8.53125 12 8.65625 12 8.75C12 8.90625 12.0625 9 12.1562 9.09375L12.5 9.4375C12.5938 9.53125 12.7188 9.59375 12.8438 9.59375C13 9.59375 13.1562 9.53125 13.25 9.40625C14.0312 8.5 14.4688 7.3125 14.4688 6.03125C14.4688 4.71875 14.0312 3.53125 13.25 2.625C13.1562 2.5 13 2.4375 12.8438 2.4375C12.7188 2.4375 12.5938 2.5 12.5 2.59375Z" fill="#323232"/>
</svg>
